<?xml version="1.0" encoding="utf-8"?>
<!-- Generator: Adobe Illustrator 18.0.0, SVG Export Plug-In . SVG Version: 6.00 Build 0)  -->
<!DOCTYPE svg PUBLIC "-//W3C//DTD SVG 1.1//EN" "http://www.w3.org/Graphics/SVG/1.1/DTD/svg11.dtd">
<svg version="1.1" id="Layer_1" xmlns="http://www.w3.org/2000/svg" xmlns:xlink="http://www.w3.org/1999/xlink" x="0px" y="0px"
	 viewBox="0 0 496 496" enable-background="new 0 0 496 496" xml:space="preserve">
<path fill="#DE1867" d="M248,129.1L306.9,80H384V0H192v80h56V129.1z M208,64V16h160v48h-66.9L264,94.9V64H208z"/>
<path fill="#DE1867" d="M224,32h16v16h-16V32z"/>
<path fill="#DE1867" d="M256,32h64v16h-64V32z"/>
<path fill="#DE1867" d="M336,32h16v16h-16V32z"/>
<path fill="#DE1867" d="M433.5,477.4l-7.5-44.4c31.1-4.9,55-31.9,55-64.3V247.4h-37.3v-12.9c0-12.7-7-24-18.2-29.9
	c11.1-10.2,18.2-24.8,18.2-41.1v-18.6c0-30.8-25.1-55.9-55.9-55.9s-55.9,25.1-55.9,55.9v18.6c0,24.1,15.4,44.7,36.8,52.5l-50,50
	h-52.3c-1-15.5-11.7-29.1-26.8-33.4l-38.2-10.9v-16.6c11.4-10.2,18.6-25,18.6-41.6v-18.6C220,114.1,195,89,164.1,89
	s-55.9,25.1-55.9,55.9v18.6c0,16.5,7.2,31.3,18.6,41.6v16.7l-38.2,10.9c-15.9,4.5-27,19.3-27,35.8v34.8H24.3v55.9H43v118.1H-0.9V496
	h497.8v-18.6H433.5z M350.5,359.3v-42.7l66-66c4.8-4.8,7.6-11.2,8.2-17.9c0.1,0.7,0.3,1.3,0.3,1.9v115.4c0,15.4-12.5,28-28,28h-74.6
	v-18.6H350.5z M322.6,433.8H370l7.5,43.6h-54.9V433.8z M388.8,433.8h18.5l7.5,43.6h-18.5L388.8,433.8z M443.7,349.9v-83.9h18.6
	v102.5c0,25.7-20.9,46.6-46.6,46.6h-93.2v-18.6h74.6C422.8,396.5,443.7,375.6,443.7,349.9z M350.5,163.6v-18.6
	c0-20.6,16.7-37.3,37.3-37.3s37.3,16.7,37.3,37.3v18.6c0,20.6-16.7,37.3-37.3,37.3S350.5,184.1,350.5,163.6z M326.4,284.7l62.2-62.2
	c1.9-1.9,4.6-3.1,7.4-3.1c5.8,0,10.4,4.7,10.4,10.4c0,2.7-1.1,5.4-3.1,7.4l-66,66h-98.7c-5.1,0-9.3-4.2-9.3-9.3s4.2-9.3,9.3-9.3
	H326.4z M126.9,144.9c0-20.6,16.7-37.3,37.3-37.3s37.3,16.7,37.3,37.3v18.6c0,20.6-16.7,37.3-37.3,37.3s-37.3-16.7-37.3-37.3V144.9z
	 M164.1,219.5c6.5,0,12.8-1.2,18.6-3.3v10c-2.3,3.6-8.7,11.9-18.6,11.9s-16.3-8.3-18.6-11.9v-10
	C151.3,218.3,157.6,219.5,164.1,219.5z M80.3,268.5c0-8.3,5.6-15.6,13.5-17.9l38.4-11c5.4,7,15.9,17.1,32,17.1s26.6-10.1,32-17.1
	l38.4,11c7.1,2,12.1,8.2,13.1,15.5h-8.9c-15.4,0-28,12.5-28,28c0,3.3,0.7,6.4,1.7,9.3H80.3V268.5z M43,322h288.9v18.6H43V322z
	 M61.6,396.5h28v-18.6h-28v-18.6h242.3v18.6H108.2v18.6h195.7v80.8h-22.2l-18.6-37.3H102.5l-18.6,37.3H61.6V396.5z M260.9,477.4
	H104.7l9.3-18.6h137.6L260.9,477.4z"/>
</svg>
