<?xml version="1.0" encoding="utf-8"?>
<!-- Generator: Adobe Illustrator 18.0.0, SVG Export Plug-In . SVG Version: 6.00 Build 0)  -->
<!DOCTYPE svg PUBLIC "-//W3C//DTD SVG 1.1//EN" "http://www.w3.org/Graphics/SVG/1.1/DTD/svg11.dtd">
<svg version="1.1" id="Layer_1" xmlns="http://www.w3.org/2000/svg" xmlns:xlink="http://www.w3.org/1999/xlink" x="0px" y="0px"
	 viewBox="0 0 937.5 937.5" enable-background="new 0 0 937.5 937.5" xml:space="preserve">
<g id="surface1">
	<path fill="#DE1867" d="M781.3,165.5V78.1C781.2,35,746.3,0.1,703.1,0h-625C35,0.1,0.1,35,0,78.1v343.8
		c0.1,39.9,30.4,73.3,70.1,77.3l58.7,152.5c15.5,40.3,60.7,60.3,101,44.8l366.8-141.3c-25.3,66.2-18.1,140.5,19.5,200.6l9,14.4
		v151.8c0,8.6,7,15.6,15.6,15.6h281.3c8.6,0,15.6-7,15.6-15.6V406.1c-0.1-54-21.7-105.8-59.9-144L781.3,165.5z M781.3,259
		l47.4,123.1c9.3,24.2-2.8,51.3-26.9,60.6l-27.1,10.5c4.3-9.9,6.6-20.5,6.6-31.3V259z M31.3,421.9V78.1c0-25.9,21-46.9,46.9-46.9
		h625c25.9,0,46.9,21,46.9,46.9v99.3h-0.1l0.1,0.4v244.1c-0.1,2.7-0.5,5.4-1.1,8.1L605.8,286.8c-32.2-31.4-83.5-31.7-115.9-0.6
		c-32.5,31.1-34.4,82.4-4.4,115.8l61,66.6H78.1C52.2,468.8,31.3,447.8,31.3,421.9z M231.4,500l-111.1,42.8L103.9,500H231.4z
		 M218.5,667.3c-24.2,9.3-51.3-2.7-60.6-26.9l-26.4-68.5L318.1,500v-0.1h257l20.3,22.1L218.5,667.3z M906.3,906.3h-250v-125h250
		V906.3z M906.3,750h-257l-6.8-10.8c-38.1-60.9-39.6-137.8-4-200.1c3.4-5.9,2.5-13.3-2-18.3l-128-139.7c-19.1-20.9-18-53.2,2.4-72.8
		c20.4-19.6,52.8-19.3,72.8,0.7l249,248.9l22.1-22.1L797,478l16-6.3c40.2-15.5,60.3-60.7,44.8-100.9l-52.9-137.3l50.6,50.7
		c32.3,32.3,50.6,76.2,50.7,121.9V750z"/>
	<path fill="#DE1867" d="M178.1,218.8c22.4,0,40.6-18.2,40.6-40.6v-75c0-22.4-18.2-40.6-40.6-40.6h-75c-22.4,0-40.6,18.2-40.6,40.6
		v75c0,22.4,18.2,40.6,40.6,40.6H178.1z M93.8,178.1v-21.9H125V125H93.8v-21.9c0-5.2,4.2-9.4,9.4-9.4h75c5.2,0,9.4,4.2,9.4,9.4V125
		h-31.3v31.3h31.3v21.9c0,5.2-4.2,9.4-9.4,9.4h-75C97.9,187.5,93.8,183.3,93.8,178.1z"/>
	<path fill="#DE1867" d="M78.1,265.6h62.5v31.3H78.1V265.6z"/>
	<path fill="#DE1867" d="M78.1,359.4h62.5v31.3H78.1V359.4z"/>
	<path fill="#DE1867" d="M359.4,359.4h62.5v31.3h-62.5V359.4z"/>
	<path fill="#DE1867" d="M171.9,265.6h62.5v31.3h-62.5V265.6z"/>
	<path fill="#DE1867" d="M265.6,265.6h62.5v31.3h-62.5V265.6z"/>
	<path fill="#DE1867" d="M359.4,265.6h62.5v31.3h-62.5V265.6z"/>
	<path fill="#DE1867" d="M656.3,78.1h31.3V125h-31.3V78.1z"/>
	<path fill="#DE1867" d="M593.8,78.1H625V125h-31.3V78.1z"/>
	<path fill="#DE1867" d="M531.3,78.1h31.3V125h-31.3V78.1z"/>
	<path fill="#DE1867" d="M468.8,78.1H500V125h-31.3V78.1z"/>
	<path fill="#DE1867" d="M687.5,812.5h31.3v31.3h-31.3V812.5z"/>
</g>
</svg>
