<?xml version="1.0" encoding="utf-8"?>
<!-- Generator: Adobe Illustrator 18.0.0, SVG Export Plug-In . SVG Version: 6.00 Build 0)  -->
<!DOCTYPE svg PUBLIC "-//W3C//DTD SVG 1.1//EN" "http://www.w3.org/Graphics/SVG/1.1/DTD/svg11.dtd">
<svg version="1.1" id="Layer_1" xmlns="http://www.w3.org/2000/svg" xmlns:xlink="http://www.w3.org/1999/xlink" x="0px" y="0px"
	 viewBox="0 0 360 360" enable-background="new 0 0 360 360" xml:space="preserve">
<polygon fill="#1B2749" points="249.1,280.2 323.4,354.5 354.5,323.4 280.2,249.1 249.1,249.1 "/>
<path fill="#FFBA38" d="M310.4,158C310.4,73.8,242.2,5.5,158,5.5L144.3,158L158,310.4C242.2,310.4,310.4,242.2,310.4,158z"/>
<path fill="#FFC76E" d="M158,5.5C73.8,5.5,5.5,73.8,5.5,158S73.8,310.4,158,310.4l0,0V5.5L158,5.5z"/>
<path fill="#B0F2F5" d="M274.8,158c0-64.4-52.4-116.8-116.8-116.8l-13.6,122.6l13.6,111C222.4,274.8,274.8,222.4,274.8,158z"/>
<path fill="#EDFFFF" d="M158,41.2C93.6,41.2,41.2,93.6,41.2,158S93.6,274.8,158,274.8l0,0V41.2L158,41.2z"/>
<path fill="#C63B3F" d="M212.4,115.8c-14.5-14.5-37.9-14.5-52.3,0l-2.1,2.1l-13.6,35.6l13.6,69.1l54.4-54.4
	C226.8,153.7,226.8,130.2,212.4,115.8z"/>
<path fill="#DD525D" d="M155.9,115.8c-14.5-14.5-37.9-14.5-52.3,0s-14.5,37.9,0,52.3l54.4,54.4V117.8L155.9,115.8z"/>
</svg>
